# xmcd
#
# Track frame offsets: 
#        150
#        15845
#        29362
#        45142
#        60720
#        71391
#        93588
#        110003
#        125366
#        140229
#        155528
#
# Disc length: 2374 seconds
#
# Revision: 0
# Processed by: cddbd v1.5.2PL0 Copyright (c) Steve Scherf et al.
# Submitted via: ExactAudioCopy v1.0b1
#
DISCID=8c09440b
DTITLE=Daniel Romano - Workin' For the Music Man
DYEAR=2010
DGENRE=Country
TTITLE0=Workin' For the Music Man
TTITLE1=Missing Wind
TTITLE2=A Losing Song
TTITLE3=On the Night
TTITLE4=So Free
TTITLE5=She Was the World to Me
TTITLE6=Poor Girls of Ontario
TTITLE7=Your Hands
TTITLE8=My Greatest Mistake
TTITLE9=Joseph Arthur
TTITLE10=Workin' For the Music Man Pt. 2
EXTD=
EXTT0=
EXTT1=
EXTT2=
EXTT3=
EXTT4=
EXTT5=
EXTT6=
EXTT7=
EXTT8=
EXTT9=
EXTT10=
PLAYORDER=
